<svg width="20" height="20" viewBox="0 0 20 20" fill="none" xmlns="http://www.w3.org/2000/svg">
<mask id="mask0_2915_1466" style="mask-type:alpha" maskUnits="userSpaceOnUse" x="0" y="0" width="20" height="20">
<rect width="20" height="20" fill="#D9D9D9"/>
</mask>
<g mask="url(#mask0_2915_1466)">
<path d="M9.99948 16.3975C11.5657 15.0342 12.804 13.6476 13.7143 12.2379C14.6245 10.8282 15.0797 9.60896 15.0797 8.58021C15.0797 7.05562 14.597 5.79729 13.6318 4.80521C12.6665 3.81326 11.4557 3.31729 9.99948 3.31729C8.54323 3.31729 7.33247 3.81326 6.36719 4.80521C5.40191 5.79729 4.91927 7.05562 4.91927 8.58021C4.91927 9.60896 5.37441 10.8282 6.28469 12.2379C7.19497 13.6476 8.43323 15.0342 9.99948 16.3975ZM9.99948 17.1298C9.8692 17.1298 9.73885 17.1084 9.60844 17.0656C9.47816 17.023 9.35795 16.9535 9.24781 16.8573C8.6549 16.3124 8.05392 15.7056 7.4449 15.0369C6.83601 14.3681 6.28288 13.6756 5.78552 12.9592C5.28816 12.2428 4.88059 11.5115 4.56281 10.7652C4.2449 10.019 4.08594 9.29062 4.08594 8.58021C4.08594 6.81729 4.65997 5.36319 5.80802 4.21792C6.95594 3.07264 8.35309 2.5 9.99948 2.5C11.6459 2.5 13.043 3.07264 14.1909 4.21792C15.339 5.36319 15.913 6.81729 15.913 8.58021C15.913 9.29062 15.7541 10.0163 15.4361 10.7573C15.1184 11.4981 14.7134 12.2294 14.2214 12.951C13.7294 13.6728 13.1789 14.3654 12.5699 15.0287C11.961 15.6922 11.3601 16.2964 10.7672 16.8413C10.6609 16.9375 10.5402 17.0097 10.4051 17.0577C10.2698 17.1058 10.1346 17.1298 9.99948 17.1298ZM10.0024 9.77562C10.3734 9.77562 10.69 9.64354 10.9522 9.37937C11.2145 9.11521 11.3457 8.79764 11.3457 8.42667C11.3457 8.05569 11.2136 7.73903 10.9493 7.47667C10.6851 7.21444 10.3675 7.08333 9.99656 7.08333C9.62559 7.08333 9.30899 7.21542 9.04677 7.47958C8.78441 7.74375 8.65323 8.06132 8.65323 8.43229C8.65323 8.80326 8.78538 9.11993 9.04969 9.38229C9.31385 9.64451 9.63142 9.77562 10.0024 9.77562Z" fill="#1C1B1F"/>
</g>
</svg>
